# xmcd
#
# Track frame offsets:
#	150
#	13125
#	22950
#	34050
#	51600
#	62775
#	76500
#	87525
#	96637
#	109950
#	119137
#	136725
#
# Disc length: 1949 seconds
#
# Revision: 1
# Processed by: cddbd v1.4PL0 Copyright (c) Steve Scherf et al.
# Submitted via: CDmax 2.0
#
DISCID=a7079b0c
DTITLE=Wylie and the Wild West - Paradise
DYEAR=2001
DGENRE=Country
TTITLE0=saddle bum
TTITLE1=swinging on a star
TTITLE2=whoop-up trail
TTITLE3=to her
TTITLE4=when i'm ridin' i'm right
TTITLE5=without you
TTITLE6=hooked on honky tonk
TTITLE7=paradise
TTITLE8=lonely yukon stars
TTITLE9=the gal who invented kissin'
TTITLE10=girl from the north country
TTITLE11=yodel boogie
EXTD=
EXTT0=
EXTT1=
EXTT2=
EXTT3=
EXTT4=
EXTT5=
EXTT6=
EXTT7=
EXTT8=
EXTT9=
EXTT10=
EXTT11=
PLAYORDER=
